<svg width="114" height="30" viewBox="0 0 114 30" fill="none" xmlns="http://www.w3.org/2000/svg">
<g clip-path="url(#clip0_6_47)">
<path d="M19.5117 23.2617C20.0195 22.7539 20.6055 22.5 21.2695 22.5C21.9336 22.5 22.5 22.7539 22.9688 23.2617C23.4766 23.7695 23.7305 24.3555 23.7305 25.0195C23.7305 25.6836 23.4766 26.2695 22.9688 26.7773C22.5 27.2461 21.9336 27.4805 21.2695 27.4805C20.6055 27.4805 20.0195 27.2461 19.5117 26.7773C19.0039 26.2695 18.75 25.6836 18.75 25.0195C18.75 24.3555 19.0039 23.7695 19.5117 23.2617ZM1.23047 2.51953H5.33203L6.50391 4.98047H25.0195C25.3711 4.98047 25.6641 5.11719 25.8984 5.39062C26.1328 5.625 26.25 5.91797 26.25 6.26953C26.25 6.30859 26.1914 6.50391 26.0742 6.85547L21.6211 14.9414C21.1523 15.8008 20.4297 16.2305 19.4531 16.2305H10.1367L9.02344 18.2812L8.96484 18.457C8.96484 18.6523 9.0625 18.75 9.25781 18.75H23.7305V21.2695H8.73047C8.06641 21.2695 7.48047 21.0156 6.97266 20.5078C6.50391 20 6.26953 19.4141 6.26953 18.75C6.26953 18.3594 6.36719 17.9688 6.5625 17.5781L8.26172 14.4727L3.75 4.98047H1.23047V2.51953ZM6.97266 23.2617C7.48047 22.7539 8.06641 22.5 8.73047 22.5C9.39453 22.5 9.98047 22.7539 10.4883 23.2617C10.9961 23.7695 11.25 24.3555 11.25 25.0195C11.25 25.6836 10.9961 26.2695 10.4883 26.7773C9.98047 27.2461 9.39453 27.4805 8.73047 27.4805C8.06641 27.4805 7.48047 27.2461 6.97266 26.7773C6.50391 26.2695 6.26953 25.6836 6.26953 25.0195C6.26953 24.3555 6.50391 23.7695 6.97266 23.2617Z" fill="#27374D"/>
<path d="M46.3338 20.6705C45.4361 20.6705 44.6634 20.4886 44.0156 20.125C43.3717 19.7576 42.8755 19.2386 42.527 18.5682C42.1785 17.8939 42.0043 17.0966 42.0043 16.1761C42.0043 15.2784 42.1785 14.4905 42.527 13.8125C42.8755 13.1345 43.366 12.6061 43.9986 12.2273C44.6349 11.8485 45.3812 11.6591 46.2372 11.6591C46.813 11.6591 47.349 11.7519 47.8452 11.9375C48.3452 12.1193 48.7808 12.3939 49.152 12.7614C49.527 13.1288 49.8187 13.5909 50.027 14.1477C50.2353 14.7008 50.3395 15.3485 50.3395 16.0909V16.7557H42.9702V15.2557H48.0611C48.0611 14.9072 47.9853 14.5985 47.8338 14.3295C47.6823 14.0606 47.4721 13.8504 47.2031 13.6989C46.938 13.5436 46.6293 13.4659 46.277 13.4659C45.9096 13.4659 45.5838 13.5511 45.2997 13.7216C45.0194 13.8883 44.7997 14.1136 44.6406 14.3977C44.4815 14.678 44.4001 14.9905 44.3963 15.3352V16.7614C44.3963 17.1932 44.4759 17.5663 44.6349 17.8807C44.7978 18.1951 45.027 18.4375 45.3224 18.608C45.6179 18.7784 45.9683 18.8636 46.3736 18.8636C46.6425 18.8636 46.8887 18.8258 47.1122 18.75C47.3357 18.6742 47.527 18.5606 47.6861 18.4091C47.8452 18.2576 47.9664 18.072 48.0497 17.8523L50.2884 18C50.1747 18.5379 49.9418 19.0076 49.5895 19.4091C49.241 19.8068 48.7902 20.1174 48.2372 20.3409C47.688 20.5606 47.0535 20.6705 46.3338 20.6705ZM57.3565 14.7614V16.6818H52.0497V14.7614H57.3565ZM59.419 20.5V11.7727H61.7259V13.3125H61.8281C62.0099 12.8011 62.313 12.3977 62.7372 12.1023C63.1615 11.8068 63.669 11.6591 64.2599 11.6591C64.8584 11.6591 65.3679 11.8087 65.7884 12.108C66.2088 12.4034 66.4891 12.8049 66.6293 13.3125H66.7202C66.8982 12.8125 67.2202 12.4129 67.6861 12.1136C68.1558 11.8106 68.7107 11.6591 69.3509 11.6591C70.1652 11.6591 70.8262 11.9186 71.3338 12.4375C71.8452 12.9527 72.1009 13.6837 72.1009 14.6307V20.5H69.6861V15.108C69.6861 14.6231 69.5573 14.2595 69.2997 14.017C69.0421 13.7746 68.7202 13.6534 68.3338 13.6534C67.8944 13.6534 67.5516 13.7936 67.3054 14.0739C67.0592 14.3504 66.9361 14.7159 66.9361 15.1705V20.5H64.5895V15.0568C64.5895 14.6288 64.4664 14.2879 64.2202 14.0341C63.9777 13.7803 63.6577 13.6534 63.2599 13.6534C62.991 13.6534 62.7486 13.7216 62.5327 13.858C62.3205 13.9905 62.152 14.178 62.027 14.4205C61.902 14.6591 61.8395 14.9394 61.8395 15.2614V20.5H59.419ZM76.5014 20.6648C75.9446 20.6648 75.4484 20.5682 75.0128 20.375C74.5772 20.178 74.2325 19.8883 73.9787 19.5057C73.7287 19.1193 73.6037 18.6383 73.6037 18.0625C73.6037 17.5777 73.6927 17.1705 73.8707 16.8409C74.0488 16.5114 74.2912 16.2462 74.598 16.0455C74.9048 15.8447 75.2533 15.6932 75.6435 15.5909C76.0374 15.4886 76.4503 15.4167 76.8821 15.375C77.3897 15.322 77.7988 15.2727 78.1094 15.2273C78.42 15.178 78.6454 15.1061 78.7855 15.0114C78.9257 14.9167 78.9957 14.7765 78.9957 14.5909V14.5568C78.9957 14.197 78.8821 13.9186 78.6548 13.7216C78.4313 13.5246 78.1132 13.4261 77.7003 13.4261C77.2647 13.4261 76.9181 13.5227 76.6605 13.7159C76.4029 13.9053 76.2325 14.1439 76.1491 14.4318L73.9105 14.25C74.0241 13.7197 74.2476 13.2614 74.581 12.875C74.9143 12.4848 75.3442 12.1856 75.8707 11.9773C76.401 11.7652 77.0147 11.6591 77.7116 11.6591C78.1965 11.6591 78.6605 11.7159 79.1037 11.8295C79.5507 11.9432 79.9465 12.1193 80.2912 12.358C80.6397 12.5966 80.9143 12.9034 81.1151 13.2784C81.3158 13.6496 81.4162 14.0947 81.4162 14.6136V20.5H79.1207V19.2898H79.0526C78.9124 19.5625 78.7249 19.803 78.4901 20.0114C78.2552 20.2159 77.973 20.3769 77.6435 20.4943C77.3139 20.608 76.9332 20.6648 76.5014 20.6648ZM77.1946 18.9943C77.5507 18.9943 77.8651 18.9242 78.1378 18.7841C78.4105 18.6402 78.6245 18.447 78.7798 18.2045C78.9351 17.9621 79.0128 17.6875 79.0128 17.3807V16.4545C78.937 16.5038 78.8329 16.5492 78.7003 16.5909C78.5715 16.6288 78.4257 16.6648 78.2628 16.6989C78.0999 16.7292 77.937 16.7576 77.7741 16.7841C77.6113 16.8068 77.4635 16.8277 77.331 16.8466C77.0469 16.8883 76.7988 16.9545 76.5866 17.0455C76.3745 17.1364 76.2098 17.2595 76.0923 17.4148C75.9749 17.5663 75.9162 17.7557 75.9162 17.983C75.9162 18.3125 76.0355 18.5644 76.2741 18.7386C76.5166 18.9091 76.8234 18.9943 77.1946 18.9943ZM83.294 20.5V11.7727H85.6406V13.2955H85.7315C85.8906 12.7538 86.1577 12.3447 86.5327 12.0682C86.9077 11.7879 87.3395 11.6477 87.8281 11.6477C87.9493 11.6477 88.08 11.6553 88.2202 11.6705C88.3603 11.6856 88.4834 11.7064 88.5895 11.733V13.8807C88.4759 13.8466 88.3187 13.8163 88.1179 13.7898C87.9171 13.7633 87.7334 13.75 87.5668 13.75C87.2107 13.75 86.8925 13.8277 86.6122 13.983C86.3357 14.1345 86.116 14.3466 85.9531 14.6193C85.794 14.892 85.7145 15.2064 85.7145 15.5625V20.5H83.294ZM92.0341 17.9886L92.0398 15.0852H92.392L95.1875 11.7727H97.9659L94.2102 16.1591H93.6364L92.0341 17.9886ZM89.8409 20.5V8.86364H92.2614V20.5H89.8409ZM95.2955 20.5L92.7273 16.6989L94.3409 14.9886L98.1307 20.5H95.2955ZM102.771 20.6705C101.874 20.6705 101.101 20.4886 100.453 20.125C99.8092 19.7576 99.313 19.2386 98.9645 18.5682C98.616 17.8939 98.4418 17.0966 98.4418 16.1761C98.4418 15.2784 98.616 14.4905 98.9645 13.8125C99.313 13.1345 99.8035 12.6061 100.436 12.2273C101.072 11.8485 101.819 11.6591 102.675 11.6591C103.25 11.6591 103.786 11.7519 104.283 11.9375C104.783 12.1193 105.218 12.3939 105.589 12.7614C105.964 13.1288 106.256 13.5909 106.464 14.1477C106.673 14.7008 106.777 15.3485 106.777 16.0909V16.7557H99.4077V15.2557H104.499C104.499 14.9072 104.423 14.5985 104.271 14.3295C104.12 14.0606 103.91 13.8504 103.641 13.6989C103.375 13.5436 103.067 13.4659 102.714 13.4659C102.347 13.4659 102.021 13.5511 101.737 13.7216C101.457 13.8883 101.237 14.1136 101.078 14.3977C100.919 14.678 100.838 14.9905 100.834 15.3352V16.7614C100.834 17.1932 100.913 17.5663 101.072 17.8807C101.235 18.1951 101.464 18.4375 101.76 18.608C102.055 18.7784 102.406 18.8636 102.811 18.8636C103.08 18.8636 103.326 18.8258 103.55 18.75C103.773 18.6742 103.964 18.5606 104.124 18.4091C104.283 18.2576 104.404 18.072 104.487 17.8523L106.726 18C106.612 18.5379 106.379 19.0076 106.027 19.4091C105.679 19.8068 105.228 20.1174 104.675 20.3409C104.125 20.5606 103.491 20.6705 102.771 20.6705ZM112.999 11.7727V13.5909H107.743V11.7727H112.999ZM108.936 9.68182H111.357V17.8182C111.357 18.0417 111.391 18.2159 111.459 18.3409C111.527 18.4621 111.622 18.5473 111.743 18.5966C111.868 18.6458 112.012 18.6705 112.175 18.6705C112.288 18.6705 112.402 18.661 112.516 18.642C112.629 18.6193 112.716 18.6023 112.777 18.5909L113.158 20.392C113.036 20.4299 112.866 20.4735 112.646 20.5227C112.427 20.5758 112.16 20.608 111.845 20.6193C111.262 20.642 110.75 20.5644 110.311 20.3864C109.875 20.2083 109.536 19.9318 109.294 19.5568C109.052 19.1818 108.932 18.7083 108.936 18.1364V9.68182Z" fill="#27374D"/>
</g>
<defs>
<clipPath id="clip0_6_47">
<rect width="114" height="30" fill="white"/>
</clipPath>
</defs>
</svg>
